<svg xmlns="http://www.w3.org/2000/svg" viewBox="0 0 2564.36 2058.55"><defs><style>.cls-1{fill:#43ddb4;}.cls-2{fill:#fff;}.cls-3{fill:#35c99e;}.cls-4{fill:#64edcc;}.cls-5{fill:#fffeff;}.cls-6{opacity:0.15;}.cls-7{fill:#2e3d5b;}.cls-8{fill:#415682;}.cls-9{fill:#f8dba6;}.cls-10{fill:#df4e71;}.cls-11{fill:#f7f7f7;}.cls-12{fill:#66b3e2;}.cls-13{fill:#d28e56;}.cls-14{fill:#d0894e;}.cls-15{fill:#fdffff;}.cls-16{fill:#f5f7f7;}.cls-17{opacity:0.05;}.cls-18{fill:#121445;}.cls-19{fill:#efefef;}.cls-20{fill:#cfe2da;}.cls-21{fill:#c2d3cc;}.cls-22{fill:#a5b5ae;}.cls-23{opacity:0.02;}.cls-24{fill:#2d3551;}.cls-25{fill:#3b446d;}.cls-26{fill:#efc083;}.cls-27{fill:#f4ca98;}.cls-28{fill:#22283f;}</style></defs><g id="Layer_2" data-name="Layer 2"><g id="Layer_1-2" data-name="Layer 1"><path class="cls-1" d="M848,548.48S675.78,810.19,707.48,1158s247.26,561.25,247.26,561.25,183.22-278.44,154.77-590.58C1076.21,763.29,848,548.48,848,548.48Z"/><path class="cls-2" d="M963.77,1872.15c-4-2.62-4-2.62-9.54-59.72-3.23-33.65-7.71-81.63-13-139.15-9.38-101.77-22.27-243.54-38.29-421.37-27.6-306.3-54.87-612.37-54.87-612.37L865.58,638c37,415,107.86,1205,111.52,1224.78l-8.23,1.52Z"/><rect class="cls-2" x="825.96" y="834.59" width="17.59" height="213.11" transform="translate(-372.92 588.88) rotate(-32.17)"/><rect class="cls-2" x="833.72" y="1071.1" width="283.79" height="17.59" transform="translate(-440.73 1414.51) rotate(-61.2)"/><rect class="cls-2" x="863.23" y="1195.99" width="228.43" height="17.59" transform="translate(-561.56 1400.63) rotate(-58.2)"/><rect class="cls-2" x="829.75" y="1142.43" width="17.59" height="331.91" transform="translate(-579.45 672.52) rotate(-33.19)"/><rect class="cls-2" x="907.34" y="1459.63" width="148" height="17.59" transform="translate(-781.81 1365.33) rotate(-52.9)"/><path class="cls-3" d="M602.56,1844.65c-13.3-78.23-147.6-82.44-163.8-233.65s37.8-129.6,19.8-226.8-79.21-68.41-99-196.21,46.8-126,37.8-257.41-10.8-226.81,46.81-230.41c0,0,82.8-18,117,95.41s79.2,223.2,142.2,284.41,81,130,81,191.9S761,1411.2,771.77,1456.2s72,55.8,102.6,122.4-36,163.09-34.2,266.05S620.56,1950.49,602.56,1844.65Z"/><path class="cls-2" d="M744.06,1988.91l-8.31-.45c14.54-273.23-35.14-340.6-75-394.73-19.36-26.26-37.65-51.06-45.65-94.34-14.46-78.2-11.82-123.21-9-170.86,1.9-32.41,3.86-65.93.37-111.85-3.35-43.93-21.39-69.88-42.29-99.92-21.34-30.68-45.53-65.45-55.68-125.93-7.14-42.56-6.29-68.67-5.55-91.71,1.32-40.72,2.27-70.14-41.16-163.2l7.54-3.52c44.27,94.87,43.24,126.69,41.93,167-.73,22.65-1.56,48.33,5.44,90.07,9.84,58.64,32.45,91.13,54.3,122.55,20.7,29.75,40.25,57.85,43.76,104,3.53,46.48,1.55,80.28-.36,113-2.76,47.13-5.37,91.65,8.91,168.86,7.65,41.4,24.57,64.34,44.16,90.91C708.09,1644,758.75,1712.7,744.06,1988.91Z"/><path class="cls-2" d="M554.18,1065.6c-6.54-23.88-6.51-50,.1-75.7,1.41-5.47,3.11-10.91,4.76-16.16,3-9.59,5.84-18.65,7.15-28.14a85.13,85.13,0,0,0-1-29.09l8.14-1.7a93,93,0,0,1,1.11,31.92c-1.4,10.18-4.47,20-7.45,29.49-1.61,5.16-3.29,10.49-4.64,15.75-6.24,24.25-6.29,49-.13,71.43Z"/><path class="cls-2" d="M582.47,1306.88a134.12,134.12,0,0,0-48-86.52c-13.9-11.3-30.27-19.88-46.11-28.18-6.34-3.32-12.89-6.75-19.24-10.33-18.32-10.33-44.14-27.11-56.75-53.45l7.5-3.59c11.6,24.22,36,40,53.33,49.8,6.24,3.51,12.74,6.92,19,10.21,16.2,8.48,33,17.26,47.5,29.09a142.45,142.45,0,0,1,51,91.93Z"/><path class="cls-2" d="M623.11,1436.69c-2-19.59-1.29-38.09,2.07-55,6-29.85,20.53-57,34.63-83.19,11-20.54,22.47-41.78,29.52-64a186.46,186.46,0,0,0,6.2-86.29l8.2-1.35a194.6,194.6,0,0,1-6.47,90.15c-7.29,23-18.9,44.57-30.13,65.45-13.81,25.68-28.09,52.24-33.79,80.87-3.2,16.09-3.86,33.76-2,52.53Z"/><path class="cls-2" d="M684.05,1693.51c-15.43-46.74-51.69-86.1-97-105.3-5.27-2.23-10.81-4.26-16.16-6.23-11.92-4.38-24.25-8.9-35.2-16.13-14.62-9.64-30.25-28.63-26.2-50.41l8.18,1.52c-3.1,16.64,9.12,33.06,22.6,42,10.14,6.69,21.48,10.86,33.49,15.27,5.44,2,11.07,4.06,16.53,6.38,47.49,20.11,85.49,61.37,101.65,110.34Z"/><path class="cls-2" d="M758.92,1809.79l-7.68-3.18c13.63-32.81,13.67-73.78.11-115.38-2.19-6.74-4.74-13.56-7.21-20.15-5.71-15.26-11.61-31-13.87-47.64-2.43-17.93-.78-37.56,5.05-60a249.82,249.82,0,0,1,25.47-62.17l7.2,4.16a242,242,0,0,0-24.63,60.1c-5.55,21.37-7.13,39.94-4.85,56.78,2.13,15.67,7.87,31,13.42,45.85,2.5,6.67,5.08,13.58,7.33,20.49C773.43,1732.14,773.31,1775.16,758.92,1809.79Z"/><path class="cls-2" d="M488.13,956.33a347,347,0,0,1-30.4-29.5c-10.68-11.7-24.49-29.55-21.29-49.34l8.21,1.33c-2.63,16.23,9.71,32,19.22,42.41A338.69,338.69,0,0,0,493.54,950Z"/><path class="cls-3" d="M1878.58,1885.69c25.68-75.09-90.29-142.94-32.29-283.52s95.13-95.8,125.75-189.79-36.9-97.93,6.76-219.67,101.31-88.34,156.18-208.08,98.86-204.41,151.18-180c0,0,81.35,23.74,57.22,139.71s-37.06,233.92-11,317.79,9.06,152.9-20.51,207.28-87.11,111.21-99.12,155.9,36.6,83.42,31.66,156.55-109.53,126.07-157.14,217.39S1843.83,1987.27,1878.58,1885.69Z"/><path class="cls-2" d="M1968.31,2026.71l-7.08-4.36c143.29-233.09,97.5-262.7,88.29-329.33-4.46-32.31-8.68-62.83,5-104.68,24.65-75.61,48.47-113.89,73.69-154.42,17.15-27.56,34.89-56.07,53.76-98.08,18-40.2,14.59-71.61,10.58-108-4.09-37.14-8.73-79.24,11.25-137.22,14.05-40.8,27.27-63.34,38.93-83.23,20.61-35.14,35.5-60.53,41.81-163l8.3.51c-6.43,104.49-22.54,132-42.93,166.73-11.47,19.55-24.46,41.71-38.25,81.73-19.37,56.21-15,95.55-10.85,133.6,4,36,7.72,70-11.26,112.31-19.1,42.52-37,71.27-54.28,99.07-24.95,40.08-48.5,78-72.84,152.6-13.06,40-9.16,68.26-4.64,101C2067.15,1759.82,2113.17,1791.07,1968.31,2026.71Z"/><path class="cls-2" d="M2208.25,1178.16c5.66-24.09,18.19-47.07,36.25-66.45,3.85-4.13,7.94-8.09,11.9-11.92,7.22-7,14-13.6,19.72-21.31a84.9,84.9,0,0,0,13-26l8,2.39a93.17,93.17,0,0,1-14.27,28.57c-6.1,8.28-13.49,15.43-20.64,22.35-3.88,3.76-7.9,7.65-11.6,11.62-17.07,18.32-28.91,40-34.24,62.69Z"/><path class="cls-2" d="M2117.84,1403.65a134.09,134.09,0,0,0-.82-98.93c-6.81-16.57-17.1-31.93-27.05-46.78-4-5.94-8.1-12.09-12-18.27-11.16-17.83-25.82-44.91-24.32-74.07l8.31.43c-1.38,26.82,12.5,52.35,23.06,69.23,3.8,6.07,7.88,12.16,11.83,18,10.18,15.2,20.7,30.91,27.83,48.26a142.49,142.49,0,0,1,.87,105.11Z"/><path class="cls-2" d="M2091.53,1537.11c7.61-18.16,17.06-34.09,28.09-47.33,19.48-23.38,45.24-40.23,70.16-56.53,19.51-12.77,39.69-26,56.52-42.14a186.46,186.46,0,0,0,46.66-72.85l7.86,2.73a194.71,194.71,0,0,1-48.76,76.11c-17.39,16.71-37.9,30.13-57.73,43.1-24.4,16-49.64,32.48-68.32,54.91-10.5,12.6-19.52,27.81-26.81,45.21Z"/><path class="cls-2" d="M2022.37,1791.83c8.78-48.42-4.27-100.33-34.91-138.84-3.57-4.48-7.46-8.91-11.22-13.19-8.39-9.54-17-19.41-23.22-31-8.23-15.46-12.9-39.61,1.07-56.8l6.45,5.25c-10.66,13.13-7.77,33.39-.18,47.64,5.71,10.73,13.68,19.8,22.12,29.41,3.83,4.36,7.79,8.87,11.48,13.5,32.11,40.37,45.79,94.76,36.59,145.51Z"/><path class="cls-2" d="M2032.59,1929.76l-5.22-6.47c27.64-22.3,47.25-58.28,55.22-101.3,1.29-7,2.3-14.18,3.29-21.15,2.27-16.14,4.63-32.82,10.57-48.48,6.43-16.92,17.25-33.37,33.09-50.29a249.54,249.54,0,0,1,52.08-42.44l4.34,7.09a241.77,241.77,0,0,0-50.35,41c-15.08,16.12-25.35,31.68-31.38,47.56-5.62,14.79-7.91,31-10.12,46.69-1,7.06-2,14.36-3.35,21.5C2082.44,1868.47,2061.78,1906.21,2032.59,1929.76Z"/><path class="cls-2" d="M2202.42,1050.62a349.24,349.24,0,0,1-12.62-40.44c-3.78-15.38-7.39-37.66,4.88-53.52l6.57,5.09c-10.06,13-6.74,32.74-3.37,46.45a338.75,338.75,0,0,0,12.31,39.46Z"/><path class="cls-1" d="M305.18,1975.36C285,1840.28,368.57,1787,351.28,1718.55s-147-101.36-152.72-201.61,55.43-106.76,45-194.27-85.34-101.92-73.82-162.43,99.11-95.09,159.05-43.22,94.53,218.71,160.8,243.35,207.48,3.79,273.75,102.1,66.28,238.69,34.58,319.78-17.29,166.47-17.29,166.47Z"/><path class="cls-2" d="M494.73,1978l16.49-5.25c-16.13-50.68-13.18-26.19,16.25-62.64,34.16-42.31,56.51-93.85,66.43-153.2,11.4-68.19.49-161.84-67.77-201.35-13.2-7.64-27.94-12.58-43.54-17.82-27.67-9.29-56.28-18.9-80.21-44.81-20.18-21.86-20.35-64.67-20.49-99.06,0-3.84,0-7.56-.08-11.15-.36-30.44-8.49-105.78-75.95-147.71l-9.14,14.7c60.19,37.42,67.45,105.63,67.78,133.22,0,3.54.06,7.22.07,11,.16,37.38.35,83.91,25.09,110.72,26.93,29.17,59.06,40,87.42,49.48,14.75,4.95,28.69,9.63,40.37,16.4,60.6,35.07,69.86,120.78,59.38,183.51-9.42,56.37-30.56,105.21-62.83,145.17C477.47,1944.46,479.58,1930.4,494.73,1978Z"/><path class="cls-4" d="M0,1590.88s104,200,333.53,302.08,439.22,41.57,439.22,41.57-110.6-212.74-316.63-304.36C215,1522.92,0,1590.88,0,1590.88Z"/><path class="cls-2" d="M871.94,1982.48c-3.07,1.62-3.07,1.62-40.85-15-22.27-9.77-54-23.79-92-40.64-67.21-29.8-160.77-71.44-278.08-123.75C259,1713,57.2,1622.81,57.2,1622.81l5.17-11.55C336,1733.6,857,1966.19,870.71,1970.82l-1.92,5.7Z"/><rect class="cls-2" x="165.31" y="1730.63" width="153.3" height="12.65" transform="translate(-90.11 14.95) rotate(-2.98)"/><rect class="cls-2" x="372.18" y="1595.08" width="12.65" height="204.15" transform="translate(-842.14 458.76) rotate(-32.01)"/><rect class="cls-2" x="451.26" y="1657.64" width="12.65" height="164.33" transform="translate(-786.49 440.35) rotate(-29.02)"/><rect class="cls-2" x="354.56" y="1857.06" width="238.77" height="12.65" transform="translate(-129.11 37.69) rotate(-4.01)"/><rect class="cls-2" x="618.21" y="1776.61" width="12.66" height="106.46" transform="translate(-683.24 405.74) rotate(-23.72)"/><path class="cls-1" d="M2564.36,1443s-283-19.86-543.51,159.47S1687.5,2046.6,1687.5,2046.6s301.07,21.11,534.85-139.82C2496,1718.39,2564.36,1443,2564.36,1443Z"/><path class="cls-2" d="M1691.36,2035.19c.27-4.35.27-4.35,42.9-34,25.13-17.48-59.52,44.06-16.46,14.36,76.17-52.55,182.37-125.62,315.64-217.16,229.53-157.67,459-315,459-315l9,13.14c-311.19,213.29-782.85,533.37-796.81,545l-4.85-5.82Z"/><rect class="cls-2" x="2152.01" y="1598.73" width="192.97" height="15.93" transform="translate(-236.32 2816.19) rotate(-61.5)"/><rect class="cls-2" x="2072.98" y="1771.47" width="256.98" height="15.93" transform="translate(-16.44 20.53) rotate(-0.53)"/><rect class="cls-2" x="2095.73" y="1732.86" width="15.93" height="206.85" transform="translate(178.65 3859.08) rotate(-87.54)"/><rect class="cls-2" x="1810.01" y="1764.64" width="300.55" height="15.93" transform="translate(-516.75 2694.08) rotate(-62.53)"/><rect class="cls-2" x="1889.34" y="1889.32" width="15.93" height="134.01" transform="translate(-297.44 3571.89) rotate(-82.23)"/><path class="cls-1" d="M1500.79,1859.63c-94.74-13.92-108.66-49.29-129.13-98s-43.8-107-35.39-166.81,39.93-44.82,49.2-110.77-67-76.68-53-160.89,135.44-111.26,145.29-181.33-46.66-71.71-35.68-164.75,109-72.94,114.8-128.87-38.43-55.85-.25-170.27,189.27-68,205.09,28.83-40.71,95.16-50,161.11,78.48,84.6,68.63,154.67-85.76,86.72-94.45,148.55,88.82,100.76,79,200.26-92.84,77.32-101.53,139.15,75.19,65.22,65.16,120.56-52.79,150.2-87.73,189.42S1591.4,1872.94,1500.79,1859.63Z"/><rect class="cls-2" x="1007.39" y="1239.42" width="1158.65" height="10.25" transform="translate(149.77 2659.37) rotate(-82.66)"/><rect class="cls-2" x="1605.99" y="751.18" width="10.25" height="107.5" transform="translate(-189.87 797.44) rotate(-26.31)"/><polygon class="cls-2" points="1636.88 890.36 1628.51 884.44 1696.69 787.88 1696.76 743.39 1707.01 743.41 1706.93 791.13 1636.88 890.36"/><rect class="cls-2" x="1700.79" y="778.42" width="35.74" height="10.25" transform="translate(-162.89 617.68) rotate(-19.47)"/><rect class="cls-2" x="1557.09" y="985.41" width="10.25" height="234.97" transform="translate(-218.14 404.88) rotate(-13.81)"/><rect class="cls-2" x="1526.64" y="1021.48" width="87.24" height="10.25" transform="translate(54.93 2132.7) rotate(-69.3)"/><rect class="cls-2" x="1531.97" y="1363.5" width="186.92" height="10.25" transform="translate(-483.18 1631.13) rotate(-47.19)"/><rect class="cls-2" x="1619.76" y="1309.63" width="62.51" height="10.25" transform="translate(119.17 2766.61) rotate(-82)"/><rect class="cls-2" x="1600.89" y="1385.01" width="76.34" height="10.25" transform="translate(-157.86 211.12) rotate(-7.03)"/><rect class="cls-2" x="1476.32" y="1294.3" width="10.25" height="305.41" transform="translate(-455.75 715.02) rotate(-23.63)"/><rect class="cls-2" x="1422.48" y="1371.04" width="119.61" height="10.25" transform="translate(-30.9 2718.29) rotate(-84.45)"/><rect class="cls-2" x="1422.46" y="1333.92" width="10.25" height="58.94" transform="translate(-500.02 1789.02) rotate(-56.13)"/><rect class="cls-2" x="1496.01" y="1674.05" width="176.04" height="10.25" transform="translate(-724.38 1672.14) rotate(-46.5)"/><rect class="cls-2" x="1568.59" y="1633.79" width="59.59" height="10.25" transform="translate(-247.12 2993.54) rotate(-82)"/><rect class="cls-2" x="1612.39" y="1637.77" width="51.57" height="10.25" transform="translate(-323.73 404.49) rotate(-12.82)"/><rect class="cls-2" x="1590.19" y="1044.98" width="113.02" height="10.25" transform="translate(-261.49 1466.24) rotate(-44.83)"/><rect class="cls-2" x="1667.76" y="1025.94" width="10.25" height="30.2" transform="translate(409.06 2552.68) rotate(-82)"/><path class="cls-4" d="M2035,1957.28c22-147.11-69-205.15-50.21-279.7S2144.82,1567.19,2151.1,1458s-60.37-116.28-49-211.59,92.95-111,80.39-176.9S2074.55,966,2009.26,1022.46s-103,238.2-175.13,265-226,4.13-298.13,111.2-72.19,260-37.66,348.27,18.83,181.31,18.83,181.31Z"/><path class="cls-2" d="M1818.92,2012.89l-18-5.72c17.57-55.19,24-81.27-8.07-121-37.2-46.07-61.55-102.21-72.35-166.84-12.41-74.27-.53-176.26,73.82-219.29,14.37-8.32,30.42-13.71,47.42-19.42,30.13-10.11,61.29-20.58,87.35-48.8,22-23.81,22.17-70.42,22.32-107.88,0-4.18,0-8.24.08-12.14.39-33.16,9.25-115.21,82.72-160.88l10,16c-65.56,40.74-73.47,115-73.83,145.09,0,3.85-.06,7.86-.08,12-.16,40.72-.37,91.39-27.32,120.59-29.33,31.77-64.32,43.52-95.2,53.89-16.07,5.39-31.25,10.49-44,17.86-66,38.2-76.08,131.54-64.66,199.86,10.26,61.39,33.28,114.59,68.42,158.11C1847.33,1923.62,1835.42,1961.07,1818.92,2012.89Z"/><path class="cls-5" d="M1747.14,1745.18a119.17,119.17,0,0,0,12.85,53.39H767.24l-21.19-18v-75.85l25.05-14.12,453.84,1.46,535.05,1.74C1749.73,1713.11,1747.14,1727.1,1747.14,1745.18Z"/><path class="cls-6" d="M1747.14,1745.18a119.17,119.17,0,0,0,12.85,53.39H1191.37a118.52,118.52,0,0,1-12.86-53.39c0-18.08,2.55-32.07,12.86-51.37l33.57-1.74,535.05,1.74C1749.73,1713.11,1747.14,1727.1,1747.14,1745.18Z"/><path class="cls-7" d="M780.36,1695.07H1775v-15.66H767.58c-20.1,0-38.36,16.43-38.36,65.75s18.26,65.75,38.36,65.75H1775v-15.66H780.36c-18.26,0-32.81-9.58-34.7-50.09C747.55,1704.64,762.1,1695.07,780.36,1695.07Z"/><rect class="cls-6" x="1205.92" y="1679.41" width="569.08" height="16.34"/><rect class="cls-6" x="1205.92" y="1794.57" width="569.08" height="16.34"/><path class="cls-5" d="M692.27,1613.64A119,119,0,0,1,679.41,1667h961.76l21.19-18v-75.85l-25-14.12-422.84,1.46-535.06,1.74C689.68,1581.57,692.27,1595.56,692.27,1613.64Z"/><path class="cls-8" d="M1697.46,1612.52h0c-.29-22.23-6.2-46.79-19.94-65.21l-570.22.55H667.67v15.63h426.27c9.71,18.66,12.25,32.46,12.25,50.15a119.4,119.4,0,0,1-11.38,50H667.67v15.75h994.69v-.62h15.12c13.74-18.41,19.65-43,19.94-65.2h0c0-.17,0-.36,0-.53S1697.46,1612.69,1697.46,1612.52Z"/><path class="cls-6" d="M1697.44,1613.36c0-.18,0-.36,0-.53h0c-.29-22.23-6.2-46.79-19.94-65.21l-574,0c15,25.31,16.25,43.52,16.38,65.77-.13,22.25-1.36,40.46-16.38,65.77l574,0c13.74-18.42,19.65-43,19.94-65.21h0C1697.46,1613.72,1697.44,1613.54,1697.44,1613.36Z"/><path class="cls-5" d="M1700,1876.68a119.17,119.17,0,0,1,12.85-53.39H751.05l-21.19,18v75.85l25,14.13,422.85-1.46,535.05-1.74C1702.55,1908.74,1700,1894.76,1700,1876.68Z"/><path class="cls-9" d="M694.76,1877.8h0c.3,22.22,6.21,46.79,19.94,65.2l570.22-.55h439.59v-15.63H1298.28c-9.71-18.66-12.24-32.46-12.24-50.14a119.51,119.51,0,0,1,11.37-50h427.14v-15.75H729.86v.62H714.74c-13.73,18.42-19.64,43-19.94,65.2h0c0,.18,0,.36,0,.54S694.76,1877.62,694.76,1877.8Z"/><path class="cls-6" d="M694.78,1877c0,.17,0,.35,0,.53h0c.3,22.22,6.21,46.79,19.94,65.2l574,0c-15-25.31-16.25-43.52-16.39-65.77.14-22.25,1.37-40.46,16.39-65.78l-574,0c-13.73,18.42-19.64,43-19.94,65.2h0C694.76,1876.6,694.78,1876.78,694.78,1877Z"/><path class="cls-5" d="M1732.84,1390.2v-75.77l-21.19-18H749.88a29.57,29.57,0,0,1,1.54,3.31,116.92,116.92,0,0,1,11.36,50.09c0,17.52-2.48,31.26-12.19,50.08a11.88,11.88,0,0,0-.71,1.3l431.1,1.31,104,.35,422.81,1.54Z"/><path class="cls-10" d="M1767.89,1350.89v-1.06c-.23-22.26-6.16-46.77-19.89-65.24h-15.16V1284H738.15v15.74h427.2a121,121,0,0,1,11.36,50.09c0,17.64-2.6,31.49-12.31,50.08H738.15v15.63h439.63l570.22.59C1761.73,1397.66,1767.66,1373.15,1767.89,1350.89Z"/><path class="cls-6" d="M1190.33,1350.42c-.12-18.59-.95-34.45-9.95-53.75a116.37,116.37,0,0,0-6.39-12l-435.84-.48v15.87h13.27l413.93-.36s1.3,63.35-53.64,74.48c-53.16,10.77-232.3,14.68-358.28,20.25-.83,1.89-1.78,3.78-2.84,5.8H738.15v15.63h436.08a126.52,126.52,0,0,0,6.75-13C1189.38,1384.05,1190.21,1368.54,1190.33,1350.42Z"/><path class="cls-5" d="M1650.64,1521.38v-75.77l-21.19-18H667.67a27.89,27.89,0,0,1,1.54,3.31A116.93,116.93,0,0,1,680.58,1481c0,17.52-2.49,31.26-12.2,50.08-.23.36-.47.83-.71,1.3l431.1,1.31,104,.35,422.81,1.54Z"/><path class="cls-9" d="M1685.69,1482.07V1481c-.24-22.26-6.16-46.77-19.89-65.24h-15.16v-.59H656v15.74h427.19a120.82,120.82,0,0,1,11.37,50.09c0,17.64-2.61,31.49-12.31,50.08H656v15.63h439.62l570.23.59C1679.53,1528.84,1685.45,1504.33,1685.69,1482.07Z"/><path class="cls-6" d="M1108.13,1481.6c-.12-18.59-1-34.45-10-53.75a120.4,120.4,0,0,0-6.39-12L656,1415.41v15.87h13.26l413.93-.36s1.31,63.35-53.63,74.48c-53.17,10.77-232.31,14.68-358.29,20.25-.82,1.89-1.77,3.78-2.84,5.8H656v15.63H1092a122.68,122.68,0,0,0,6.75-13C1107.18,1515.23,1108,1499.72,1108.13,1481.6Z"/><path class="cls-5" d="M643.9,1128v-75.77l21.19-18h961.77a27.85,27.85,0,0,0-1.53,3.31,116.93,116.93,0,0,0-11.37,50.09c0,17.52,2.49,31.26,12.19,50.08a11.88,11.88,0,0,1,.71,1.3l-431.1,1.31-104,.35L669,1142.19Z"/><path class="cls-10" d="M608.85,1088.67v-1.06c.24-22.26,6.16-46.77,19.89-65.24H643.9v-.59h994.69v15.74h-427.2a121,121,0,0,0-11.36,50.09c0,17.64,2.6,31.49,12.31,50.08h426.25v15.63H1199l-570.22.59C615,1135.44,609.09,1110.93,608.85,1088.67Z"/><path class="cls-6" d="M1186.41,1088.2c.12-18.59.95-34.45,9.95-53.75a116.37,116.37,0,0,1,6.39-12l435.84-.48v15.87h-13.26l-413.94-.36s-1.3,63.35,53.64,74.48c53.16,10.77,232.3,14.68,358.28,20.25.83,1.89,1.78,3.78,2.84,5.8h12.44v15.63H1202.51a126.52,126.52,0,0,1-6.75-13C1187.36,1121.83,1186.53,1106.32,1186.41,1088.2Z"/><path class="cls-5" d="M726.1,1259.16v-75.77l21.19-18h961.78a27.89,27.89,0,0,0-1.54,3.31,116.93,116.93,0,0,0-11.37,50.09c0,17.52,2.49,31.26,12.2,50.08.23.36.47.83.71,1.3l-431.1,1.31-104,.35-422.81,1.54Z"/><path class="cls-9" d="M691.05,1219.85v-1.06c.24-22.26,6.16-46.77,19.89-65.24H726.1V1153h994.69v15.74H1293.6a120.94,120.94,0,0,0-11.37,50.09c0,17.64,2.61,31.49,12.32,50.08h426.24v15.63H1281.17l-570.23.59C697.21,1266.62,691.29,1242.11,691.05,1219.85Z"/><path class="cls-6" d="M1268.62,1219.38c.11-18.59.94-34.45,9.94-53.75a118.51,118.51,0,0,1,6.4-12l435.83-.48v15.87h-13.26l-413.93-.36s-1.3,63.35,53.63,74.48c53.17,10.77,232.31,14.68,358.29,20.25.83,1.89,1.77,3.78,2.84,5.8h12.43v15.63H1284.72a124.57,124.57,0,0,1-6.75-13C1269.56,1253,1268.73,1237.5,1268.62,1219.38Z"/><path class="cls-11" d="M1042,1026.4a22.09,22.09,0,0,1-5.43,2.81,72.2,72.2,0,0,1-13.56,3.3c-13.75,2.21-32.39,3-51.09,3.21-30.42.35-60.92,2.24-67.76-2s6.51-34.31,5-61c-1.91-33.29-14.75-57.3-16.66-89.15s-6.92-73.36,1.05-78.85c4.34-3,13.27-6.08,28.1-8.48,12.23-2,23.25-3.34,44.37-4,21.55-.69,32,1.25,43.06,4.49,15.92,4.61,21.8,9.16,25.38,11.43,7.66,4.84,3.63,14.38,4.59,25.79a34.29,34.29,0,0,0,.8,5.08c3,13-2.19,30.93-3.44,39.5-6.11,41.85-9.26,40-9.2,85C1027.12,989,1047,1022.55,1042,1026.4Z"/><path class="cls-12" d="M969.92,963.52c33.63-1.61,54.55-7.23,63,23.39s7.58,60.4-5.85,60.4-58.72-2.09-82.63-12.58S924.14,965.72,969.92,963.52Z"/><path class="cls-13" d="M981.86,1214c-.91,7.44-2.26,23.67-3.38,29.08s-7,21-6.32,32.45,2.27,19.11,6.54,19.83c12.39,2.1,23.91-1.12,26.72-9.69s-2.83-32.23-1.7-41.92,2.49-28.17,2.49-28.17Z"/><path class="cls-13" d="M1070.37,1022.13a74.49,74.49,0,0,0,7.78,1.36c2.61.2,6.7-2.87,11.87-2.79s8.84,4.93,8.83,10.78-3.6,13.72-3.47,19.45-.72,27.78-1.92,31-8.12,6.91-8.15.59-3.44-25.69-4.71-29.39-9.59-3.48-12.61-3.54S1068.7,1021.77,1070.37,1022.13Z"/><path class="cls-13" d="M959.52,796.25c-18.28.82-30,.48-30,11s12.22,25.46,33.36,25.94,27.36-16.81,26.6-25.46S977.76,795.43,959.52,796.25Z"/><path class="cls-14" d="M1059.43,918c.08.26.16.54.22.81.18.78.33,1.54.44,2.31a10.27,10.27,0,0,1,.13,1.13c0,.16,0,.32,0,.51a17.43,17.43,0,0,1-5.1,12.75,7.58,7.58,0,0,1-.62.65c-7.75,7.74-62.16,31-81.44,38.94-4.57,1.87-7.83,3.18-9,3.62-6.25,2.29-19.35-17.46-13.38-21,2-1.19,5.22-3.33,9.16-6,10.3-7.14,39.41-22.2,51.78-31.42,9.82-7.3,17.78-13.31,19.88-15,5.76-4.57,15.84-2.56,22.2,3.56A22.14,22.14,0,0,1,1059.43,918Z"/><path class="cls-14" d="M1024.63,934.94a7.71,7.71,0,0,0,.44.72c.44.67.88,1.3,1.37,1.91a9.77,9.77,0,0,0,.73.86,4,4,0,0,0,.35.38,15.26,15.26,0,0,0,11.27,5.14,9.88,9.88,0,0,0,1.5-.08c8.14-.85,23.08-9.19,20.46-29.62-.48-3.69-1-7.91-1.61-12.46-3-22.25-7.05-52.06-8.16-61.79-1.35-11.74-4.64-34.59-28.64-30.93-20.29,3.07-17.74,22.35-17.28,33.5s12.82,67.12,15.05,79.42A38.61,38.61,0,0,0,1024.63,934.94Z"/><path class="cls-14" d="M867.74,923.37c-.09.26-.19.54-.26.8-.22.77-.42,1.52-.57,2.28a10.45,10.45,0,0,0-.18,1.12c0,.16,0,.32-.06.51a17.37,17.37,0,0,0,4.41,13c.19.24.37.47.58.69C879,949.91,932.09,976,950.92,985c4.45,2.11,7.64,3.59,8.81,4.1,6.12,2.61,20.25-16.41,14.48-20.25-2-1.3-5-3.61-8.83-6.52-9.9-7.68-38.17-24.27-50-34.13-9.42-7.82-17-14.25-19.06-16.05-5.5-4.88-15.67-3.41-22.35,2.37A22.05,22.05,0,0,0,867.74,923.37Z"/><path class="cls-14" d="M901.21,938.5c-.12.25-.25.51-.39.74a22.36,22.36,0,0,1-1.24,2,8.52,8.52,0,0,1-.67.91,3.66,3.66,0,0,1-.33.4,15.25,15.25,0,0,1-10.9,5.88,10.58,10.58,0,0,1-1.5,0c-8.18-.31-23.64-7.65-22.38-28.21.23-3.71.5-8,.78-12.53,1.48-22.4,3.58-52.42,4-62.2.57-11.8,2.33-34.82,26.52-32.76,20.46,1.72,19.19,21.12,19.46,32.28s-8.33,67.82-9.75,80.25A38.79,38.79,0,0,1,901.21,938.5Z"/><path class="cls-11" d="M868.13,830.37c-12,31.4-10.64,74.58-10.64,74.58l53.73,7.23s11.88-72.72,9.57-89.43c-1.56-11.26,2.36-26.8-6.8-24.67C891.16,803.39,876.72,807.91,868.13,830.37Z"/><path class="cls-11" d="M1053.42,828.62c12,31.41,10.64,74.59,10.64,74.59l-53.72,7.23s-11.89-72.73-9.57-89.44c1.55-11.25-2.37-26.8,6.79-24.67C1030.39,801.65,1044.83,806.17,1053.42,828.62Z"/><path class="cls-12" d="M1010.9,990.23c31.89,2.45,31.43,38.65,29,59.89s-25,183-25,183a33.1,33.1,0,0,1-20.64,4.31c-12.4-1.29-24.38-11.23-24.38-11.23s7.88-148.73,11.24-175.94S983.4,988.12,1010.9,990.23Z"/><path class="cls-12" d="M836.58,980.18c5.72-26.37,81.28-19.67,114.89-16.66s30.28,28.77,28,48.22S913,1036,883.33,1029.67,829.37,1013.4,836.58,980.18Z"/><path class="cls-15" d="M1032.29,910.72l-6,76.08a3.65,3.65,0,0,1-3.65,3.36H913a3.57,3.57,0,0,1-2.67-1.19,3.67,3.67,0,0,1-1-2.13l-7.11-76.06a3.65,3.65,0,0,1,3.63-4h122.79A3.62,3.62,0,0,1,1032.29,910.72Z"/><circle class="cls-16" cx="965.95" cy="949.27" r="14.26" transform="translate(-125.79 1750.69) rotate(-80.78)"/><path class="cls-17" d="M1032.29,910.72l-6,76.08a3.65,3.65,0,0,1-3.65,3.36H913a3.57,3.57,0,0,1-2.67-1.19c23.44-1.15,90.4-5.35,100.95-15.59,12.05-11.7,14.1-45.46,12-66.6h5.41A3.62,3.62,0,0,1,1032.29,910.72Z"/><path class="cls-12" d="M835.43,983.46c-7.58,31.08,27,41.89,47.9,46.21s181.42,39,181.42,39,8.21-12,10.84-24.19-3.11-26.66-3.11-26.66-143.81-38.72-170.72-44S842,956.67,835.43,983.46Z"/><path class="cls-18" d="M989.5,744.87c.45-16.58,7-13.67,7-19.76s-6.58-7.77-6.66-11.93,5.14-8.5,4.92-15.24-12.83-5.77-16.52-11.37,2.39-15.16-6.53-17.33-17,8.48-26.74,8.48S925.15,671,919.5,671s-2.61,8-7.39,12.83-8.67,1.64-10.63,9.68,7.18,15,5.86,20.4-3.72,5-2.63,10.22,6.49,12.38,12.93,22.67S989.14,758.35,989.5,744.87Z"/><path class="cls-13" d="M980.15,802.08c-.18,10.29-11.65,9.43-18.58,9.61s-21.61.21-22-8.38c-.31-5.77-.39-11.61-.49-20.91,0-1.27,0-2.6,0-4,0-2.06,0-4.32-.06-6.74,0-1.7,0-3.42-.06-5.22a11.76,11.76,0,0,1,1.27-5.47c6.67-13.44,38.26-12.9,38.63.1.1,3.34.22,6.78.37,10.25.1,2.31.2,4.67.33,7,0,1,.08,1.93.12,2.89.2,5.51.33,5.92.41,10.88C980.05,794.67,980.19,799.77,980.15,802.08Z"/><path class="cls-6" d="M979.48,778.32c-9,7.25-27.13,9.32-40.44,4.08,0-1.27,0-2.6,0-4,0-2.06,0-4.32-.06-6.74,0-1.7,0-3.42-.06-5.22a11.76,11.76,0,0,1,1.27-5.47c6.67-13.44,38.26-12.9,38.63.1.1,3.34.22,6.78.37,10.25C979.25,773.63,979.35,776,979.48,778.32Z"/><path class="cls-13" d="M984.21,768.26c-6.07,15.67-45.32,19-57.6.84-5.49-8.11-9.6-22.2-11.67-35.49-1.61-10.26-2-20.07-.8-26.28,1.55-8.39,11.61-12,32-17,18.06-4.4,35.08,8.65,40.83,32.49a76.09,76.09,0,0,1,1.61,9.72C989.82,744.74,990.88,751,984.21,768.26Z"/><path class="cls-18" d="M914.94,736.44a20,20,0,0,0,5.9-14.19c.16-6.31,1.47-9.91,6.45-10.47,10.13-1.15,16,6.08,27.18,7.26,8.29.88,18.7-2.86,25-.68a16.22,16.22,0,0,1,8.86,8.06l-5.26-28.31s-11.72-15.28-23.56-15.52-26.4,2.91-36.1,7.52-12.61,10.74-12.61,17.37S914.94,736.44,914.94,736.44Z"/><path class="cls-18" d="M984.21,768.26c-6.07,15.67-45.32,19-57.6.84-5.49-8.11-9.6-22.2-11.67-35.49l1.35-10c.92,16.68,9.92,32,14.7,36.23s15.64,1.75,25,0,19-1.61,23.5-6.18,5.82-26.86,2.92-38.16l4.58,7.36a76.09,76.09,0,0,1,1.61,9.72C989.82,744.74,990.88,751,984.21,768.26Z"/><path class="cls-13" d="M950.83,767.22s2.24,5.21,7.73,4.92,8.33-2.89,8.94-5.94S951.44,763.89,950.83,767.22Z"/><path class="cls-19" d="M972,770.29a28.18,28.18,0,0,1-11.55,4.54c-5.48.88-11.46.27-16.1-3.21-8.51-6.38-13.88-24-6.56-25.25s8.22-7.2,17.67-8.38l.83-.08c9.12-.71,13.09,6.2,19.52,5.23C983.79,741.92,978.11,765.85,972,770.29Z"/><path class="cls-2" d="M955.61,740.11c8.61-1.08,12.16,5.45,18,4.56,7.11-1.08,2.07,20.12-3.37,24.05s-17,6.83-24.49,1.18-12.3-21.27-5.81-22.37S947.24,741.16,955.61,740.11Z"/><path class="cls-20" d="M948.28,749l-.85-1.3a13.09,13.09,0,0,0,2.61-1.64,10.55,10.55,0,0,1,5.46-2.48c3.19-.39,5.83.65,8.16,1.56.56.22,1.08.43,1.59.61l-.84,1.37-1.68-.64c-2.17-.86-4.42-1.74-7-1.42a8.44,8.44,0,0,0-4.4,2.06A15.59,15.59,0,0,1,948.28,749Z"/><path class="cls-21" d="M952.63,760.89c-1-2.76-3.19-4.5-5-4h0l-.07,0h-.06l-.29.12-.47.36c-1.17,1.08-1.48,3.42-.64,5.77.78,2.18,2.32,3.73,3.8,4l1,0,.2-.09h0l.12,0C953,766.51,953.63,763.71,952.63,760.89Z"/><path class="cls-22" d="M952.31,761c1,2.82.37,5.62-1.43,6.26s-4.06-1.12-5.07-3.94-.37-5.61,1.43-6.26S951.3,758.21,952.31,761Z"/><path class="cls-21" d="M951.77,761.19c-1-2.76-3.19-4.5-5-4h0l-.07,0h0l0,0-.29.12-.46.35c-1.18,1.08-1.49,3.42-.65,5.77.78,2.18,2.32,3.73,3.8,4l1,.05.19-.09h0l.12,0C952.14,766.81,952.78,764,951.77,761.19Z"/><path class="cls-20" d="M951.45,761.32c1,2.82.37,5.62-1.42,6.26s-4.07-1.12-5.08-3.93-.37-5.62,1.43-6.26S950.44,758.51,951.45,761.32Z"/><polygon class="cls-21" points="946.7 757.25 947.59 756.95 948.6 756.95 947.69 757.25 946.7 757.25"/><polygon class="cls-21" points="952.09 764.35 952.97 763.98 952.73 761.78 952.16 760.19 951.32 760.51 951.96 762.27 952.09 764.35"/><path class="cls-23" d="M972,770.29a28.18,28.18,0,0,1-11.55,4.54,10.15,10.15,0,0,1,.11-3.06c.58-3.59,2-7,3-10.49s1.68-7.24.72-10.75a21.35,21.35,0,0,0-2.24-5,29.92,29.92,0,0,0-5.76-7.65c9.12-.71,13.09,6.2,19.52,5.23C983.79,741.92,978.11,765.85,972,770.29Z"/><path class="cls-2" d="M935,751.13c-5.66-.11-14.32-6.15-19.14-12.49l-.54-3c3.11,5.43,13.32,14.06,20.14,14.18Z"/><path class="cls-2" d="M940.05,765.92c-7.24,0-14.42-3.76-18.88-7.8l-.73-2c3.57,3.23,11.19,8.52,18.56,8.52Z"/><path class="cls-2" d="M978.6,746.87l-.53-1.21c2.26-1,4.92-3.86,6.71-8.29a95.41,95.41,0,0,0,3.89-12.46v3.48C987.7,733,984.86,744.11,978.6,746.87Z"/><path class="cls-2" d="M975.17,764.28l.85-1.92c5.1-1.94,10.6-10.19,13.48-18.18v2.37C986.69,755.48,980.7,762.18,975.17,764.28Z"/><path class="cls-24" d="M1146.36,673.57c-13.46,0-14.78,40.61,0,40.61h204.05c10.43,0,10.75-40.65,0-40.65Z"/><polygon class="cls-25" points="1146.36 714.18 1146.36 777.85 1210.22 860.09 1285.42 860.09 1350.58 777.85 1350.58 714.18 1146.36 714.18"/><path class="cls-24" d="M1146.36,719.59c-7.51,0-8.57,11.68,0,12.95,11,1.62,193.67-1.16,204.05,0,6.48.72,6.64-13,0-13C1339.65,719.57,1158.61,719.61,1146.36,719.59Z"/><path class="cls-24" d="M1146.36,742.24c-7.51,0-8.57,11.69,0,13,11,1.62,193.67-1.16,204.05,0,6.48.72,6.64-13,0-13C1339.65,742.23,1158.61,742.27,1146.36,742.24Z"/><path class="cls-24" d="M1146.53,764.9c-7.51,0-8.57,11.69,0,13,11,1.63,193.68-1.15,204,0,6.48.73,6.64-13,0-13C1339.82,764.89,1158.79,764.92,1146.53,764.9Z"/><path class="cls-26" d="M1428.66,423.36c0,100.11-76,165.07-76,251.37l-70.15-.18h-8l-46-.11-8,0-78.41-.19c0-75.94-73.66-172.62-69.05-265.82s73.65-155.35,179.52-155.35S1428.66,323.25,1428.66,423.36Z"/><path class="cls-2" d="M1329.24,464c-6.09,22.85-15.32,47.2-24.72,65.1-19.64,37.54-22.33,91.83-22,145.42h-8c-.36-54.6,2.43-110,22.9-149.11,20.85-39.8,34.72-96.92,28.77-107.1-.3-.51-.43-.51-.52-.51h-.1c-5,0-8.9,13.55-11.75,23.48-3.84,13.35-7.45,26-16.5,26.57-10,.69-11.65-13.46-13.4-28.44-1.24-10.68-3.13-26.83-8.4-27l-.08,0c-5.34,0-8.21,15.32-10.3,26.53-2.85,15.17-5.31,28.28-14.56,28.9-9.87.66-12.62-13-15.86-28.82-2.16-10.52-5.42-26.45-10.35-26.59h-.06c-4.38,0-5.61,15.7-6.36,25.1-1.2,15.16-2.24,28.25-11.08,30.23-9.56,2.14-16.49-12.34-23.82-27.67-2.51-5.21-6.08-12.65-8.4-15.64-4.65,10.12-4.43,38.48,23.62,87.68,28.17,49.43,30.15,94.29,30.23,162.27l-8,0c-.06-68.57-1.93-110.47-29.19-158.29-29.11-51.09-30.89-83.63-22.84-97.06,2-3.29,4.6-3.67,6-3.61,5.49.26,9.2,7.45,15.79,21.21,3,6.32,6.17,12.86,9.29,17.59,3.77,5.74,5.56,5.72,5.58,5.74,3.1-.69,4.3-15.8,4.87-23.05,1.27-16,2.56-32.47,14.25-32.47h.38c11.24.35,14.65,16.94,17.94,33,1.26,6.19,4.6,22.57,7.48,22.46,3.09-.21,5.9-15.2,7.24-22.41,3.09-16.42,6.26-33.35,18.47-33s14.18,17.47,16.11,34c.77,6.61,2.37,20.31,4.9,21.41,3.48-.24,7.17-13.13,9.38-20.82,4.13-14.4,8.39-29.27,19.39-29.27h.39a8.49,8.49,0,0,1,7.19,4.48C1338.43,423.38,1333.94,446.35,1329.24,464Z"/><path class="cls-27" d="M971.76,161.85c-3.23-8.52-6.06-17.52-5.14-26.58s6.47-18.22,15.22-20.77c7.84-2.29,16.45,1.19,22.4,6.79s9.75,13,13.44,20.33l26.15,51.62c11.24,22.21,22.61,44.35,33.74,66.61,9.72,19.47,18.41,27.87,5,30.65-9.53,2-27.08-14.79-33.53-20a241.54,241.54,0,0,1-39.39-40.75A266.75,266.75,0,0,1,971.76,161.85Z"/><path class="cls-27" d="M1177.12,49.56c-1.87-9.83-3.74-20-1.44-29.76s10-19,19.94-19.75c9-.7,17.36,5.63,21.71,13.52s5.46,17.11,6.3,26.08c4.22,45.11,5.28,80.17,6.48,125.46.86,32.13,3.72,58.6-5.51,69.34-6.15,7.15-13.37-6.34-15.73-14.47-9.79-33.69-9.29-52.41-15.55-85.3Z"/><path class="cls-27" d="M1408.12,79.78c7-11.69,15.82-23.59,24.07-22.32a4.74,4.74,0,0,1,3.68,2.53c1.27,2.4,1.22,6.37,1,10.07a163.37,163.37,0,0,1-6.12,34.66c-4.11,14.15-10,27.16-15.79,40-8.53,18.86-17.09,37.75-26.32,55.76-6.18,12.06-21.56,46.34-30.59,49.51-20.79,7.31,14.35-94.24,19.19-106.61A428.87,428.87,0,0,1,1408.12,79.78Z"/><path class="cls-3" d="M2103.69,1942.73H412.21c-169.44,0-255,35.62-15.44,56.72s608.65-10.54,608.65-10.54,72.92,71.08,603.35,69.61,946.93-11,946.8-58.52C2555.45,1955.72,2293.62,1942.73,2103.69,1942.73Z"/><path class="cls-6" d="M1732.32,1943c0,20.75-242.66,37.58-542,37.58s-542-16.83-542-37.58Z"/><ellipse class="cls-6" cx="1607.61" cy="2024.53" rx="167.83" ry="11.64"/><polygon class="cls-28" points="1542.02 2017.71 1519.1 2021.36 1349.6 957.95 1373.1 957.95 1383.64 1024.05 1387.33 1047.26 1407.89 1176.27 1411.6 1199.48 1432.16 1328.48 1435.85 1351.68 1456.41 1480.69 1460.12 1503.89 1480.68 1632.9 1484.38 1656.11 1504.94 1785.12 1508.64 1808.33 1529.2 1937.33 1532.9 1960.53 1542.02 2017.71"/><polygon class="cls-28" points="1704.98 2017.71 1682.06 2021.36 1672.36 1960.53 1668.67 1937.33 1648.11 1808.33 1644.41 1785.12 1623.85 1656.11 1620.14 1632.9 1599.58 1503.89 1595.89 1480.69 1575.32 1351.68 1571.62 1328.48 1551.06 1199.48 1547.37 1176.27 1526.81 1047.26 1523.1 1024.05 1512.56 957.95 1536.06 957.95 1667.9 1785.12 1668.58 1789.37 1692.17 1937.33 1694.63 1952.82 1704.98 2017.71"/><rect class="cls-28" x="1440.05" y="949.06" width="23.21" height="173.2" transform="translate(2487.31 -416) rotate(90)"/><rect class="cls-28" x="1466.12" y="1101.27" width="23.21" height="173.2" transform="translate(2665.59 -289.85) rotate(90)"/><rect class="cls-28" x="1492.18" y="1253.48" width="23.21" height="173.2" transform="translate(2843.86 -163.7) rotate(90)"/><rect class="cls-28" x="1518.24" y="1405.69" width="23.21" height="173.2" transform="translate(3022.14 -37.56) rotate(90)"/><rect class="cls-28" x="1544.31" y="1557.9" width="23.21" height="173.2" transform="translate(3200.42 88.59) rotate(90)"/><rect class="cls-28" x="1570.37" y="1710.12" width="23.21" height="173.2" transform="translate(3378.69 214.74) rotate(90)"/><rect class="cls-28" x="1596.44" y="1862.33" width="23.21" height="173.2" transform="translate(3556.97 340.89) rotate(90)"/></g></g></svg>