<?xml version="1.0" encoding="utf-8"?>
<!-- Generator: Adobe Illustrator 25.0.0, SVG Export Plug-In . SVG Version: 6.00 Build 0)  -->
<svg version="1.1" id="Layer_1" xmlns="http://www.w3.org/2000/svg" xmlns:xlink="http://www.w3.org/1999/xlink" x="0px" y="0px"
	 viewBox="0 0 1084 269.4" style="enable-background:new 0 0 1084 269.4;" xml:space="preserve">
<style type="text/css">
	.st0{fill:#2F353B;}
	.st1{fill:#F15A24;}
</style>
<g id="Layer_1-2">
	<path class="st0" d="M65.9,0h327.6c12.8,0,23.2,10.4,23.2,23.2l0,0v57.3l0,0H43.7l0,0V22.1C43.7,9.9,53.7,0,65.9,0z"/>
	<rect y="94.4" class="st1" width="373" height="80.6"/>
	<path class="st0" d="M73.7,188.8h372.9l0,0v57.4c0,12.8-10.4,23.2-23.2,23.2l0,0H97c-12.9,0-23.3-10.4-23.3-23.3c0,0,0,0,0,0
		L73.7,188.8L73.7,188.8z"/>
	<path class="st1" d="M523.1,48h22.8v163.5h-22.8V48z M536.6,190.2h44.3c11.6,0,20.1-2.2,25.4-6.6s8-10.6,8-18.7v-0.3
		c0.1-4.9-0.8-9.8-2.9-14.3c-1.9-4-5.1-7.2-9-9.2c-4.1-2.1-9.4-3.2-15.8-3.2h-50v-20.7h49.9c8.5,0,14.9-2,19.2-6
		c4.3-4,6.5-9.9,6.5-17.7c0-8.2-2.4-14.3-7.2-18.3c-4.8-4-12-6.1-21.6-6.1h-46.8V48h50.9c10.6,0,19.4,1.8,26.5,5.4
		c6.8,3.3,12.4,8.6,16,15.3c3.5,6.6,5.3,14.5,5.3,23.6c0,5.4-1.1,10.8-3.3,15.8c-2.2,5-5.6,9.3-10,12.6c-4.9,3.7-10.6,6.1-16.6,7
		c6.2,0.8,12.1,3.2,17.1,7c4.7,3.7,8.5,8.4,11,13.9c2.6,5.6,3.9,11.8,3.8,18v0.4c0.2,8.2-1.9,16.2-5.8,23.4
		c-3.9,6.7-9.7,12.2-16.7,15.6c-7.3,3.7-15.7,5.5-25.4,5.5h-52.8V190.2z"/>
	<path class="st1" d="M692.3,205.7c-8.6-4.9-15.7-12.3-20.2-21.1c-4.7-9.1-7.1-19.7-7.1-31.6v-46.3c0-12,2.4-22.5,7.1-31.7
		c4.5-8.9,11.5-16.2,20.2-21.1c8.7-5,18.7-7.5,30.1-7.5c11.4,0,21.5,2.5,30.1,7.5c8.6,4.9,15.6,12.3,20.1,21.1
		c4.8,9.1,7.1,19.7,7.1,31.7v46.3c0,12-2.4,22.5-7.1,31.6c-4.5,8.9-11.5,16.2-20.2,21.1c-8.7,5-18.7,7.5-30.1,7.5
		C711,213.1,700.9,210.6,692.3,205.7z M740.2,186c5.1-3.1,9.3-7.5,11.9-12.9c2.9-6,4.4-12.7,4.2-19.4v-47.9
		c0.1-6.7-1.3-13.3-4.2-19.4c-2.6-5.4-6.8-9.9-11.9-12.9c-11.1-6.1-24.5-6.1-35.6,0c-5.2,3.1-9.3,7.5-11.9,12.9
		c-2.9,6-4.4,12.7-4.2,19.4v47.9c-0.1,6.7,1.3,13.3,4.2,19.4c2.6,5.4,6.8,9.9,11.9,12.9C715.7,192.1,729.1,192.1,740.2,186z"/>
	<path class="st1" d="M836.4,205.7c-8.6-4.9-15.7-12.3-20.2-21.1c-4.8-9.1-7.1-19.7-7.1-31.6v-46.3c0-12,2.4-22.5,7.1-31.7
		c4.5-8.9,11.5-16.2,20.2-21.1c8.7-5,18.7-7.5,30.1-7.5c11.4,0,21.4,2.5,30.1,7.5c8.6,4.9,15.6,12.3,20.2,21.1
		c4.8,9.1,7.1,19.7,7.1,31.7v46.3c0,12-2.4,22.5-7.1,31.6c-4.5,8.9-11.5,16.2-20.2,21.1c-8.7,5-18.7,7.5-30.1,7.5
		C855.1,213.1,845.1,210.6,836.4,205.7z M884.4,186c5.1-3.1,9.3-7.5,11.9-12.9c2.9-6,4.4-12.7,4.2-19.4v-47.9
		c0.1-6.7-1.3-13.3-4.2-19.4c-2.6-5.4-6.8-9.9-11.9-12.9c-11.1-6.1-24.5-6.1-35.6,0c-5.1,3.1-9.3,7.6-11.9,12.9
		c-2.9,6-4.4,12.7-4.2,19.4v47.9c-0.1,6.7,1.3,13.3,4.2,19.4c2.6,5.4,6.7,9.9,11.9,12.9C859.8,192.1,873.2,192.1,884.4,186
		L884.4,186z"/>
	<path class="st1" d="M958.8,48h22.9v163.5h-22.9V48z M976.8,139.7l72.1-91.7h28.2L973.4,174.1L976.8,139.7z M1004,124.2l18.1-16.8
		l61.9,104h-28.1L1004,124.2z"/>
</g>
</svg>
